<svg xmlns="http://www.w3.org/2000/svg" viewBox="0 0 24 24" fill="none" stroke="#000" stroke-width="2" stroke-linecap="round" stroke-linejoin="round" aria-hidden="true">
  <path d="M12 4.4c-3 .3-5.6 2.6-6.2 5.6-.4 2.1.2 4.4 1.8 5.9 1.6 1.4 3.8 2 5.9 1.7 2.3-.3 4.2-1.9 5-4.1.9-2.5.2-5.3-1.7-7.2C15.7 4.8 13.9 4.2 12 4.4z"/>
  <path d="M12 8.1v4M9.9 10.1h4.2"/>
  <path d="M6.3 7.3c-.6-.6-1.3-.9-1.8-.7-.5.2-.5 1 .1 1.7"/>
  <path d="M17.7 7.3c.6-.6 1.3-.9 1.8-.7.5.2.5 1-.1 1.7"/>
  <path d="M5.2 16.5c.4-.5 1-.8 1.6-.8M18.8 16.5c-.4-.5-1-.8-1.6-.8"/>
</svg>